<?xml version="1.0" encoding="UTF-8" standalone="no"?>
<!DOCTYPE svg PUBLIC "-//W3C//DTD SVG 1.1//EN" "http://www.w3.org/Graphics/SVG/1.1/DTD/svg11.dtd">
<svg width="100%" height="100%" viewBox="0 0 25 76" version="1.1" xmlns="http://www.w3.org/2000/svg" xmlns:xlink="http://www.w3.org/1999/xlink" xml:space="preserve" xmlns:serif="http://www.serif.com/" style="fill-rule:evenodd;clip-rule:evenodd;stroke-linejoin:round;stroke-miterlimit:2;">
    <g transform="matrix(0.69134,0,0,0.69134,0.0244704,-0.535741)">
        <g transform="matrix(0.919844,0,0,0.915957,1.44645,1.51656)">
            <path d="M36.042,13.909C35.919,13.532 35.586,13.263 35.192,13.221L23.643,12.049L18.96,1.43C18.8,1.07 18.441,0.834 18.045,0.834C17.649,0.834 17.29,1.068 17.13,1.432L12.446,12.05L0.899,13.221C0.505,13.261 0.171,13.533 0.049,13.909C-0.074,14.286 0.038,14.7 0.334,14.964L8.986,22.702L6.533,34.045C6.45,34.432 6.602,34.832 6.923,35.065C7.098,35.192 7.304,35.256 7.511,35.256C7.684,35.256 7.858,35.211 8.014,35.119L18.046,29.279L28.076,35.119C28.418,35.316 28.846,35.297 29.167,35.06C29.487,34.831 29.641,34.427 29.558,34.04L27.105,22.696L35.758,14.959C36.052,14.699 36.165,14.285 36.042,13.909ZM25.336,21.598C25.068,21.838 24.949,22.203 25.025,22.555L27.122,32.25L18.548,27.26C18.237,27.078 17.853,27.078 17.542,27.26L8.966,32.25L11.063,22.555C11.139,22.203 11.02,21.838 10.752,21.598L3.356,14.985L13.226,13.983C13.584,13.948 13.894,13.719 14.04,13.391L18.044,4.314L22.047,13.391C22.193,13.719 22.503,13.948 22.861,13.983L32.731,14.985L25.336,21.598Z" style="fill:white;fill-rule:nonzero;"/>
        </g>
        <g transform="matrix(0.919844,0,0,0.957978,1.44645,75.4596)">
            <path d="M36.042,13.909C35.919,13.532 35.586,13.263 35.192,13.221L23.643,12.049L18.96,1.43C18.8,1.07 18.441,0.834 18.045,0.834C17.649,0.834 17.29,1.068 17.13,1.432L12.446,12.05L0.899,13.221C0.505,13.261 0.171,13.533 0.049,13.909C-0.074,14.286 0.038,14.7 0.334,14.964L8.986,22.702L6.533,34.045C6.45,34.432 6.602,34.832 6.923,35.065C7.098,35.192 7.304,35.256 7.511,35.256C7.684,35.256 7.858,35.211 8.014,35.119L18.046,29.279L28.076,35.119C28.418,35.316 28.846,35.297 29.167,35.06C29.487,34.831 29.641,34.427 29.558,34.04L27.105,22.696L35.758,14.959C36.052,14.699 36.165,14.285 36.042,13.909Z" style="fill:rgb(255,209,71);fill-rule:nonzero;"/>
        </g>
        <g transform="matrix(0.919844,0,0,0.915957,1.44645,40.8818)">
            <path d="M36.042,13.909C35.919,13.532 35.586,13.263 35.192,13.221L23.643,12.049L18.96,1.43C18.8,1.07 18.441,0.834 18.045,0.834C17.649,0.834 17.29,1.068 17.13,1.432L12.446,12.05L0.899,13.221C0.505,13.261 0.171,13.533 0.049,13.909C-0.074,14.286 0.038,14.7 0.334,14.964L8.986,22.702L6.533,34.045C6.45,34.432 6.602,34.832 6.923,35.065C7.098,35.192 7.304,35.256 7.511,35.256C7.684,35.256 7.858,35.211 8.014,35.119L18.046,29.279L28.076,35.119C28.418,35.316 28.846,35.297 29.167,35.06C29.487,34.831 29.641,34.427 29.558,34.04L27.105,22.696L35.758,14.959C36.052,14.699 36.165,14.285 36.042,13.909ZM25.336,21.598C25.068,21.838 24.949,22.203 25.025,22.555L27.122,32.25L18.548,27.26C18.237,27.078 17.853,27.078 17.542,27.26L8.966,32.25L11.063,22.555C11.139,22.203 11.02,21.838 10.752,21.598L3.356,14.985L13.226,13.983C13.584,13.948 13.894,13.719 14.04,13.391L18.044,4.314L22.047,13.391C22.193,13.719 22.503,13.948 22.861,13.983L32.731,14.985L25.336,21.598Z" style="fill:rgb(255,209,71);fill-rule:nonzero;"/>
        </g>
    </g>
</svg>
